#Comment line ignore any data following # character 
#Hierarchical Translation and Rotation (.htr) file 
[Header]	
#Header keywords are followed by a single value 
FileType HTR		#Single word string
DataType HTRS		#Translation followed by rotation and scale data
FileVersion 1		#integer
NumSegments 64		#integer
NumFrames 3		#integer
DataFrameRate 30		#integer, data frame rate in this file
EulerRotationOrder ZYX
CalibrationUnits mm
RotationUnits Degrees
GlobalAxisofGravity Y
BoneLengthAxis Y
ScaleFactor 1.00
[SegmentNames&Hierarchy]
#CHILD	PARENT
Pinger_Root GLOBAL
Pelvis Pinger_Root
L_Hip Pelvis
R_Hip Pelvis
Rear_Leg01 Pelvis
Spine1 Pelvis
L_Leg01 L_Hip
L_Leg02 L_Leg01
L_Leg03 L_Leg02
L_Foot L_Leg03
L_Toe1_01 L_Foot
L_Toe2_01 L_Foot
L_Toe3_01 L_Foot
planeAlignerLeft L_Foot
L_Toe1_02 L_Toe1_01
L_Toe1_03 L_Toe1_02
L_Toe2_02 L_Toe2_01
L_Toe2_03 L_Toe2_02
L_Toe3_02 L_Toe3_01
L_Toe3_03 L_Toe3_02
planeLockWeightLeft planeAlignerLeft
R_Leg01 R_Hip
R_Leg02 R_Leg01
R_Leg03 R_Leg02
R_Foot R_Leg03
planeAlignerRight R_Foot
R_Toe1_01 R_Foot
R_Toe2_01 R_Foot
R_Toe3_01 R_Foot
planeLockWeightRight planeAlignerRight
R_Toe1_02 R_Toe1_01
R_Toe1_03 R_Toe1_02
R_Toe2_02 R_Toe2_01
R_Toe2_03 R_Toe2_02
R_Toe3_02 R_Toe3_01
R_Toe3_03 R_Toe3_02
Rear_Leg02 Rear_Leg01
Rear_Leg03 Rear_Leg02
Rear_Leg04 Rear_Leg03
Rear_Foot Rear_Leg04
planeAlignerCenter Rear_Foot
Rear_Toe1_01 Rear_Foot
Rear_Toe2_01 Rear_Foot
Rear_Toe3_01 Rear_Foot
planeLockWeightCenter planeAlignerCenter
Rear_Toe1_02 Rear_Toe1_01
Rear_Toe1_03 Rear_Toe1_02
Rear_Toe2_02 Rear_Toe2_01
Rear_Toe2_03 Rear_Toe2_02
Rear_Toe3_02 Rear_Toe3_01
Rear_Toe3_03 Rear_Toe3_02
Back_Bone Spine1
Head Spine1
Motor_Bone Back_Bone
Ping_Mechanism Back_Bone
BN_LookIK Head
bottomMouth Head
L_Mouth01 Head
L_mouthFront Head
mouthGun Head
R_Mouth01 Head
R_mouthFront Head
TopMouth Head
weapon_bone Head
[BasePosition]
#SegmentName Tx, Ty, Tz, Rx, Ry, Rz, BoneLength
Pinger_Root 0.000000 0.000000 0.000000 -90.000000 0.000000 0.000000 10.000000 
Pelvis 0.000000 0.000000 0.000000 0.000000 0.000000 0.000000 10.000000 
L_Hip 0.000000 0.000000 0.000000 0.000000 0.000000 0.000000 10.000000 
R_Hip 0.000000 0.000000 0.000000 0.000000 0.000000 0.000000 10.000000 
Rear_Leg01 0.000000 0.000000 0.000000 0.000000 0.000000 0.000000 10.000000 
Spine1 0.000000 0.000000 0.000000 0.000000 0.000000 0.000000 10.000000 
L_Leg01 0.000000 0.000000 0.000000 0.000000 0.000000 0.000000 10.000000 
L_Leg02 0.000000 0.000000 0.000000 0.000000 0.000000 0.000000 10.000000 
L_Leg03 0.000000 0.000000 0.000000 0.000000 0.000000 0.000000 10.000000 
L_Foot 0.000000 0.000000 0.000000 0.000000 0.000000 0.000000 10.000000 
L_Toe1_01 0.000000 0.000000 0.000000 0.000000 0.000000 0.000000 10.000000 
L_Toe2_01 0.000000 0.000000 0.000000 0.000000 0.000000 0.000000 10.000000 
L_Toe3_01 0.000000 0.000000 0.000000 0.000000 0.000000 0.000000 10.000000 
planeAlignerLeft 0.000000 0.000000 0.000000 0.000000 0.000000 0.000000 10.000000 
L_Toe1_02 0.000000 0.000000 0.000000 0.000000 0.000000 0.000000 10.000000 
L_Toe1_03 0.000000 0.000000 0.000000 0.000000 0.000000 0.000000 10.000000 
L_Toe2_02 0.000000 0.000000 0.000000 0.000000 0.000000 0.000000 10.000000 
L_Toe2_03 0.000000 0.000000 0.000000 0.000000 0.000000 0.000000 10.000000 
L_Toe3_02 0.000000 0.000000 0.000000 0.000000 0.000000 0.000000 10.000000 
L_Toe3_03 0.000000 0.000000 0.000000 0.000000 0.000000 0.000000 10.000000 
planeLockWeightLeft 0.000000 0.000000 0.000000 0.000000 0.000000 0.000000 10.000000 
R_Leg01 0.000000 0.000000 0.000000 0.000000 0.000000 0.000000 10.000000 
R_Leg02 0.000000 0.000000 0.000000 0.000000 0.000000 0.000000 10.000000 
R_Leg03 0.000000 0.000000 0.000000 0.000000 0.000000 0.000000 10.000000 
R_Foot 0.000000 0.000000 0.000000 0.000000 0.000000 0.000000 10.000000 
planeAlignerRight 0.000000 0.000000 0.000000 0.000000 0.000000 0.000000 10.000000 
R_Toe1_01 0.000000 0.000000 0.000000 0.000000 0.000000 0.000000 10.000000 
R_Toe2_01 0.000000 0.000000 0.000000 0.000000 0.000000 0.000000 10.000000 
R_Toe3_01 0.000000 0.000000 0.000000 0.000000 0.000000 0.000000 10.000000 
planeLockWeightRight 0.000000 0.000000 0.000000 0.000000 0.000000 0.000000 10.000000 
R_Toe1_02 0.000000 0.000000 0.000000 0.000000 0.000000 0.000000 10.000000 
R_Toe1_03 0.000000 0.000000 0.000000 0.000000 0.000000 0.000000 10.000000 
R_Toe2_02 0.000000 0.000000 0.000000 0.000000 0.000000 0.000000 10.000000 
R_Toe2_03 0.000000 0.000000 0.000000 0.000000 0.000000 0.000000 10.000000 
R_Toe3_02 0.000000 0.000000 0.000000 0.000000 0.000000 0.000000 10.000000 
R_Toe3_03 0.000000 0.000000 0.000000 0.000000 0.000000 0.000000 10.000000 
Rear_Leg02 0.000000 0.000000 0.000000 0.000000 0.000000 0.000000 10.000000 
Rear_Leg03 0.000000 0.000000 0.000000 0.000000 0.000000 0.000000 10.000000 
Rear_Leg04 0.000000 0.000000 0.000000 0.000000 0.000000 0.000000 10.000000 
Rear_Foot 0.000000 0.000000 0.000000 0.000000 0.000000 0.000000 10.000000 
planeAlignerCenter 0.000000 0.000000 0.000000 0.000000 0.000000 0.000000 10.000000 
Rear_Toe1_01 0.000000 0.000000 0.000000 0.000000 0.000000 0.000000 10.000000 
Rear_Toe2_01 0.000000 0.000000 0.000000 0.000000 0.000000 0.000000 10.000000 
Rear_Toe3_01 0.000000 0.000000 0.000000 0.000000 0.000000 0.000000 10.000000 
planeLockWeightCenter 0.000000 0.000000 0.000000 0.000000 0.000000 0.000000 10.000000 
Rear_Toe1_02 0.000000 0.000000 0.000000 0.000000 0.000000 0.000000 10.000000 
Rear_Toe1_03 0.000000 0.000000 0.000000 0.000000 0.000000 0.000000 10.000000 
Rear_Toe2_02 0.000000 0.000000 0.000000 0.000000 0.000000 0.000000 10.000000 
Rear_Toe2_03 0.000000 0.000000 0.000000 0.000000 0.000000 0.000000 10.000000 
Rear_Toe3_02 0.000000 0.000000 0.000000 0.000000 0.000000 0.000000 10.000000 
Rear_Toe3_03 0.000000 0.000000 0.000000 0.000000 0.000000 0.000000 10.000000 
Back_Bone 0.000000 0.000000 0.000000 0.000000 0.000000 0.000000 10.000000 
Head 0.000000 0.000000 0.000000 0.000000 0.000000 0.000000 10.000000 
Motor_Bone 0.000000 0.000000 0.000000 0.000000 0.000000 0.000000 10.000000 
Ping_Mechanism 0.000000 0.000000 0.000000 0.000000 0.000000 0.000000 10.000000 
BN_LookIK 0.000000 0.000000 0.000000 0.000000 0.000000 0.000000 10.000000 
bottomMouth 0.000000 0.000000 0.000000 0.000000 0.000000 0.000000 10.000000 
L_Mouth01 0.000000 0.000000 0.000000 0.000000 0.000000 0.000000 10.000000 
L_mouthFront 0.000000 0.000000 0.000000 0.000000 0.000000 0.000000 10.000000 
mouthGun 0.000000 0.000000 0.000000 0.000000 0.000000 0.000000 10.000000 
R_Mouth01 0.000000 0.000000 0.000000 0.000000 0.000000 0.000000 10.000000 
R_mouthFront 0.000000 0.000000 0.000000 0.000000 0.000000 0.000000 10.000000 
TopMouth 0.000000 0.000000 0.000000 0.000000 0.000000 0.000000 10.000000 
weapon_bone 0.000000 0.000000 0.000000 0.000000 0.000000 0.000000 10.000000 
#Beginning of Data. Separated by tabs
#Fr	Tx	Ty	Tz	Rx	Ry	Rz	SF
[Pinger_Root]
116 0.000000 0.000000 0.000000 -0.000075 -0.000000 -0.000020 0.000000
117 0.000000 0.000000 0.000000 -0.000075 -0.000000 -0.000020 0.000000
118 0.000000 0.000000 0.000000 -0.000075 -0.000000 -0.000020 0.000000
[Pelvis]
116 669.476746 4335.898926 2626.892578 -95.554848 -14.910962 89.267975 5113.587891
117 656.325134 4355.001953 2573.746338 -93.245270 -15.722580 89.153030 5101.076172
118 650.729797 4363.045898 2503.287109 -90.923523 -16.529421 89.003517 5072.086426
[L_Hip]
116 5.766392 125.831482 872.656799 -178.253311 -81.787712 87.381248 881.701050
117 5.766392 125.831482 872.656799 -178.253311 -81.787758 87.381340 881.701050
118 5.766392 125.831482 872.656799 -178.253311 -81.787758 87.381340 881.701050
[R_Hip]
116 5.765438 125.836372 -872.654907 -0.804260 81.787857 87.384949 881.699829
117 5.765438 125.836372 -872.654907 -0.672791 81.788475 87.387184 881.699829
118 5.765438 125.836372 -872.654907 -0.672289 81.788475 87.386894 881.699829
[Rear_Leg01]
116 -192.298416 -925.602966 -0.001907 66.603989 18.090214 148.568558 945.367432
117 -192.298416 -925.602966 -0.001907 61.866428 19.503750 147.767136 945.367432
118 -192.298416 -925.602966 -0.001907 59.191521 21.982761 148.101563 945.367432
[Spine1]
116 290.604584 5.007505 0.000477 38.552952 21.300545 -14.352424 290.647736
117 290.604584 5.007505 0.000477 36.384575 20.267418 -15.029509 290.647736
118 290.604584 5.007505 0.000477 34.004238 19.263945 -15.908569 290.647736
[L_Leg01]
116 761.932007 -0.002384 -0.069261 77.118660 -20.633976 -55.615356 761.932068
117 761.932007 -0.002384 -0.069261 72.711006 -19.896734 -55.802784 761.932068
118 761.932007 -0.002384 -0.069261 68.374535 -19.625044 -56.772827 761.932068
[L_Leg02]
116 1441.140503 -0.000954 -0.000715 7.554338 -0.808396 -114.070473 1441.140503
117 1441.140503 -0.000954 -0.000715 6.716349 -0.785653 -112.453667 1441.140503
118 1441.140503 -0.000954 -0.000715 4.854604 -0.643660 -110.997154 1441.140503
[L_Leg03]
116 1686.963989 -0.000715 -0.000954 -0.027441 0.010362 117.682945 1686.963989
117 1686.963989 -0.000715 -0.000954 -0.027488 0.010235 117.150467 1686.963989
118 1686.963989 -0.000715 -0.000954 -0.020761 0.008421 116.197540 1686.963989
[L_Foot]
116 3041.570068 -30.715107 11.297464 7.338311 16.270893 54.927643 3041.746094
117 3041.570068 -30.715107 11.297464 9.927378 16.477964 54.111668 3041.746094
118 3041.570068 -30.715107 11.297464 12.399477 16.774433 53.971684 3041.746094
[L_Toe1_01]
116 -188.216690 -224.732346 -21.137953 97.739891 -11.133462 -134.168472 293.899567
117 -188.216690 -224.732346 -21.137953 97.739899 -11.133466 -134.168472 293.899567
118 -188.216690 -224.732346 -21.137953 97.739899 -11.133467 -134.168472 293.899567
[L_Toe2_01]
116 200.746536 -219.926590 148.838394 -72.394371 -9.740401 -96.946823 332.896027
117 200.746536 -219.926590 148.838394 -72.394371 -9.740401 -96.946823 332.896027
118 200.746536 -219.926590 148.838394 -72.394356 -9.740395 -96.946815 332.896027
[L_Toe3_01]
116 188.832520 -219.859131 -191.078659 -109.723152 -9.067774 -109.997963 347.140900
117 188.832520 -219.859131 -191.078659 -109.723145 -9.067776 -109.997963 347.140900
118 188.832520 -219.859131 -191.078659 -109.723152 -9.067774 -109.997963 347.140900
[planeAlignerLeft]
116 0.812531 -811.448792 -0.314951 0.000000 -90.000000 -90.001900 811.449280
117 0.812531 -811.448792 -0.314951 0.000000 -90.000000 -90.001900 811.449280
118 0.812531 -811.448792 -0.314951 0.000000 -90.000000 -90.001900 811.449280
[L_Toe1_02]
116 413.761139 0.000477 0.000000 0.001461 -16.934593 0.001461 413.761139
117 413.761139 0.000477 0.000000 0.001461 -16.934595 0.001461 413.761139
118 413.761139 0.000477 0.000000 0.001461 -16.934593 0.001461 413.761139
[L_Toe1_03]
116 464.317322 0.000358 -0.000089 -179.995453 79.529129 -179.991943 464.317322
117 464.317322 0.000358 -0.000089 -179.995453 79.529129 -179.991943 464.317322
118 464.317322 0.000358 -0.000089 -179.995453 79.529129 -179.991943 464.317322
[L_Toe2_02]
116 342.235809 -0.000477 0.000238 0.001188 -72.199875 0.001188 342.235809
117 342.235809 -0.000477 0.000238 0.001188 -72.199875 0.001188 342.235809
118 342.235809 -0.000477 0.000238 0.001188 -72.199852 0.001188 342.235809
[L_Toe2_03]
116 420.210846 -0.000715 0.000000 0.026031 84.831604 0.026031 420.210846
117 420.210846 -0.000715 0.000000 0.026031 84.831604 0.026031 420.210846
118 420.210846 -0.000715 0.000000 0.026031 84.831604 0.026031 420.210846
[L_Toe3_02]
116 329.270111 0.000954 0.000000 0.001187 -72.585991 0.001187 329.270111
117 329.270111 0.000954 0.000000 0.001187 -72.585976 0.001187 329.270111
118 329.270111 0.000954 0.000000 0.001187 -72.585976 0.001187 329.270111
[L_Toe3_03]
116 439.137451 -0.001907 0.000954 0.012059 78.829590 0.012059 439.137451
117 439.137451 -0.001907 0.000954 0.012059 78.829605 0.012059 439.137451
118 439.137451 -0.001907 0.000954 0.012059 78.829590 0.012059 439.137451
[planeLockWeightLeft]
116 -0.000954 0.000238 -0.000305 -0.011826 -0.004376 0.005620 0.001029
117 -0.000954 0.000238 -0.000305 -0.011826 -0.004376 0.005620 0.001029
118 -0.000954 0.000238 -0.000305 -0.011826 -0.004376 0.005620 0.001029
[R_Leg01]
116 761.455627 -0.001907 -0.000358 150.664978 -24.784027 27.163612 761.455688
117 761.455627 -0.001907 -0.000358 149.547806 -29.608427 25.048544 761.455688
118 761.455627 -0.001907 -0.000358 147.038086 -34.776730 24.908134 761.455688
[R_Leg02]
116 1441.140625 0.000000 -0.000238 -5.114901 1.591540 -140.651657 1441.140625
117 1441.140625 0.000000 -0.000238 -1.378019 0.504616 -141.964905 1441.140625
118 1441.140625 0.000000 -0.000238 1.517657 -0.894572 -143.060959 1441.140625
[R_Leg03]
116 1686.963989 0.000954 0.001431 -0.021531 0.006194 104.141312 1686.963989
117 1686.963989 0.000954 0.001431 -0.044209 0.011862 97.987740 1686.963989
118 1686.963989 0.000954 0.001431 -0.067364 0.015067 91.834106 1686.963989
[R_Foot]
116 3041.560059 -30.531288 -11.204481 2.022073 -65.954384 82.146400 3041.734131
117 3041.560059 -30.531288 -11.204481 4.012407 -67.265312 82.391998 3041.734131
118 3041.560059 -30.531288 -11.204481 5.244963 -68.897003 84.475983 3041.734131
[planeAlignerRight]
116 -0.635147 -812.270569 -0.364304 0.000000 -89.960434 -90.005180 812.270874
117 -0.635147 -812.270569 -0.364304 0.000000 -89.960434 -90.005180 812.270874
118 -0.635147 -812.270569 -0.364304 0.000000 -89.960434 -90.005180 812.270874
[R_Toe1_01]
116 -188.383347 -224.864899 21.052242 92.105881 -0.481134 -142.555054 294.101532
117 -188.383347 -224.864899 21.052242 92.105881 -0.481134 -142.555054 294.101532
118 -188.383347 -224.864899 21.052242 92.105881 -0.481134 -142.555054 294.101532
[R_Toe2_01]
116 200.637817 -220.002121 -148.787384 -106.980522 1.570341 -80.125076 332.857574
117 200.637817 -220.002121 -148.787384 -106.980522 1.570341 -80.125076 332.857574
118 200.637817 -220.002121 -148.787384 -106.980522 1.570343 -80.125076 332.857574
[R_Toe3_01]
116 188.606735 -220.092957 191.126343 -67.804062 -7.154592 -81.377983 347.192566
117 188.606735 -220.092957 191.126343 -67.804062 -7.154592 -81.377983 347.192566
118 188.606735 -220.092957 191.126343 -67.804062 -7.154592 -81.377983 347.192566
[planeLockWeightRight]
116 -0.000477 0.000000 0.000000 -0.011823 -0.004379 -0.000027 0.000477
117 -0.000477 0.000000 0.000000 -0.011823 -0.004379 -0.000027 0.000477
118 -0.000477 0.000000 0.000000 -0.011823 -0.004379 -0.000027 0.000477
[R_Toe1_02]
116 413.762085 0.000477 -0.000119 0.001485 -14.448324 0.001485 413.762085
117 413.762085 0.000477 -0.000119 0.001485 -14.448324 0.001485 413.762085
118 413.762085 0.000477 -0.000119 0.001485 -14.448324 0.001485 413.762085
[R_Toe1_03]
116 464.317810 0.000000 0.001088 -179.998047 72.222351 -179.994522 464.317810
117 464.317810 0.000000 0.001088 -179.998047 72.222351 -179.994522 464.317810
118 464.317810 0.000000 0.001088 -179.998047 72.222351 -179.994522 464.317810
[R_Toe2_02]
116 342.234741 -0.000954 0.000238 -0.002331 -80.564583 -0.002331 342.234741
117 342.234741 -0.000954 0.000238 -0.002331 -80.564583 -0.002331 342.234741
118 342.234741 -0.000954 0.000238 -0.002331 -80.564583 -0.002331 342.234741
[R_Toe2_03]
116 420.210846 0.000715 -0.000268 -179.996170 56.643330 -179.999832 420.210846
117 420.210846 0.000715 -0.000268 -179.996170 56.643330 -179.999832 420.210846
118 420.210846 0.000715 -0.000268 -179.996170 56.643330 -179.999832 420.210846
[R_Toe3_02]
116 329.270355 -0.000477 -0.000954 0.001175 -84.219650 0.001175 329.270355
117 329.270355 -0.000477 -0.000954 0.001175 -84.225143 0.001175 329.270355
118 329.270355 -0.000477 -0.000954 0.001175 -84.230621 0.001175 329.270355
[R_Toe3_03]
116 439.137939 0.000238 0.001431 -179.995667 56.199936 -179.988358 439.137939
117 439.137939 0.000238 0.001431 -179.995667 56.199936 -179.988358 439.137939
118 439.137939 0.000238 0.001431 -179.995667 56.199936 -179.988358 439.137939
[Rear_Leg02]
116 1162.777710 -0.029802 0.005960 -11.434293 14.252252 -41.033257 1162.777710
117 1162.777710 -0.029802 0.005960 -5.477979 13.736759 -25.564983 1162.777710
118 1162.777710 -0.029802 0.005960 -0.535024 11.249593 -10.436878 1162.777710
[Rear_Leg03]
116 607.192505 -0.013351 -0.073195 0.008819 0.003078 51.517681 607.192505
117 607.192505 -0.013351 -0.073195 0.004057 0.005470 44.922649 607.192505
118 607.192505 -0.013351 -0.073195 0.003716 0.005707 37.936802 607.192505
[Rear_Leg04]
116 995.874512 -0.020504 -0.011921 -0.033758 -0.013318 35.866821 995.874573
117 995.874512 -0.020504 -0.011921 -0.031379 -0.011345 26.031502 995.874573
118 995.874512 -0.020504 -0.011921 -0.024730 -0.009696 16.652969 995.874573
[Rear_Foot]
116 3096.176270 -0.067472 -0.041425 147.306015 73.666573 -67.815811 3096.176270
117 3096.176270 -0.067472 -0.041425 137.679153 76.725082 -71.157219 3096.176270
118 3096.176270 -0.067472 -0.041425 125.658257 78.874931 -76.726479 3096.176270
[planeAlignerCenter]
116 0.350077 0.966311 -838.790894 0.000009 0.000003 -179.999985 838.791565
117 0.350077 0.966311 -838.790894 0.000009 0.000003 -179.999985 838.791565
118 0.350077 0.966311 -838.790894 0.000009 0.000003 -179.999985 838.791565
[Rear_Toe1_01]
116 0.653352 83.966492 -371.173737 -3.928069 65.639359 85.604050 380.553192
117 0.653352 83.966492 -371.173737 -3.927006 65.641479 85.605934 380.553192
118 0.653352 83.966492 -371.173737 -8.469269 62.805244 80.554893 380.553192
[Rear_Toe2_01]
116 178.200760 -294.826019 -362.060547 163.306595 77.451164 92.501366 499.765686
117 178.200760 -294.826019 -362.060547 163.306473 77.451164 92.501236 499.765686
118 178.200760 -294.826019 -362.060547 149.887482 77.763283 79.842445 499.765686
[Rear_Toe3_01]
116 -153.359680 -308.780914 -362.060852 -179.093552 76.758530 70.620621 499.952881
117 -153.359680 -308.780914 -362.060852 -179.093628 76.758469 70.620529 499.952881
118 -153.359680 -308.780914 -362.060852 170.383911 76.368248 60.740860 499.952881
[planeLockWeightCenter]
116 -0.000062 0.000238 0.000000 -0.011814 -0.004373 -0.000015 0.000246
117 -0.000062 0.000238 0.000000 -0.011814 -0.004373 -0.000015 0.000246
118 -0.000062 0.000238 0.000000 -0.011814 -0.004373 -0.000015 0.000246
[Rear_Toe1_02]
116 379.707825 0.194073 0.000477 -0.001509 -33.562801 0.002189 379.707855
117 379.707825 0.194073 0.000477 -0.002928 -33.542130 0.002616 379.707855
118 379.707825 0.194073 0.000477 -0.004347 -33.521458 0.003043 379.707855
[Rear_Toe1_03]
116 500.129700 0.165701 0.000119 0.007840 72.781952 0.007840 500.129761
117 500.129700 0.165701 0.000119 0.007840 72.780487 0.007840 500.129761
118 500.129700 0.165701 0.000119 0.012128 78.893707 0.012128 500.129761
[Rear_Toe2_02]
116 340.494507 0.000238 -0.000954 0.001188 -72.415779 0.001188 340.494507
117 340.494507 0.000238 -0.000954 0.001188 -72.414291 0.001188 340.494507
118 340.494507 0.000238 -0.000954 0.001183 -75.779190 0.001183 340.494507
[Rear_Toe2_03]
116 433.103577 0.000000 0.000238 0.008365 73.868622 0.008365 433.103546
117 433.103577 0.000000 0.000238 0.008363 73.865616 0.008363 433.103546
118 433.103577 0.000000 0.000238 0.012909 79.567810 0.012909 433.103546
[Rear_Toe3_02]
116 340.494141 -0.000358 -0.000477 0.001186 -73.109947 0.001186 340.494171
117 340.494141 -0.000358 -0.000477 0.001186 -73.108444 0.001186 340.494171
118 340.494141 -0.000358 -0.000477 0.001181 -77.253021 0.001181 340.494171
[Rear_Toe3_03]
116 433.103577 0.001431 -0.000238 0.008983 74.986450 0.008983 433.103546
117 433.103577 0.001431 -0.000238 0.008981 74.983406 0.008981 433.103546
118 433.103577 0.001431 -0.000238 -0.010274 82.265350 -0.006769 433.103546
[Back_Bone]
116 1312.175781 -701.934692 0.000954 -10.249131 6.101567 -87.147820 1488.125488
117 1312.175781 -701.934692 0.000954 -9.491273 5.041823 -85.335907 1488.125488
118 1312.175781 -701.934692 0.000954 -8.768484 3.958859 -83.540840 1488.125488
[Head]
116 1406.159424 809.709290 0.001431 8.647593 -12.185188 26.301464 1622.625488
117 1406.159424 809.709290 0.001431 8.032853 -12.384288 27.364733 1622.625488
118 1406.159424 809.709290 0.001431 6.666451 -12.817407 28.512615 1622.625488
[Motor_Bone]
116 1158.364380 -417.834747 0.000477 -18.175367 -2.429057 -67.494133 1231.419434
117 1158.364380 -417.834747 0.000477 -18.240381 -6.037827 -62.858627 1231.419434
118 1158.364380 -417.834747 0.000477 -18.392620 -8.524228 -59.124878 1231.419434
[Ping_Mechanism]
116 1283.240845 -437.507294 65.013680 0.000103 -0.000053 82.120995 1357.330566
117 1280.850342 -437.988251 61.648174 0.000103 -0.000053 82.120995 1355.068848
118 1278.459717 -438.469238 58.282642 0.000103 -0.000053 82.120995 1352.816040
[BN_LookIK]
116 193.241119 1380.371704 -0.002861 0.000000 89.965736 -31.038179 1393.832153
117 193.241119 1380.371704 -0.002861 0.000000 89.965736 -31.038179 1393.832153
118 193.241119 1380.371704 -0.002861 0.000000 89.965736 -31.038179 1393.832153
[bottomMouth]
116 -435.092926 615.759399 -0.000954 -0.000022 0.000016 73.527184 753.966492
117 -435.092926 615.759399 -0.000954 -0.000022 0.000016 73.527184 753.966492
118 -435.092926 615.759399 -0.000954 -0.000022 0.000016 73.527184 753.966492
[L_Mouth01]
116 554.440979 7.658243 838.222046 150.204178 23.759130 109.605339 1005.027161
117 554.440979 7.658243 838.222046 150.204178 23.759130 109.605339 1005.027161
118 554.440979 7.658243 838.222046 150.204178 23.759130 109.605339 1005.027161
[L_mouthFront]
116 551.629089 934.514771 339.150421 0.000081 2.804060 79.119301 1136.941284
117 551.629089 934.514771 339.150421 0.000081 2.804060 79.119301 1136.941284
118 551.629089 934.514771 339.150421 0.000081 2.804060 79.119301 1136.941284
[mouthGun]
116 55.332661 1627.420898 0.000000 0.000023 0.000009 -11.038128 1628.361328
117 55.332661 1627.420898 0.000000 0.000023 0.000009 -11.038128 1628.361328
118 55.332661 1627.420898 0.000000 0.000023 0.000009 -11.038128 1628.361328
[R_Mouth01]
116 554.442383 7.659197 -838.223938 29.795891 -23.759109 109.605331 1005.029541
117 554.442383 7.659197 -838.223938 29.795891 -23.759109 109.605331 1005.029541
118 554.442383 7.659197 -838.223938 29.795891 -23.759109 109.605331 1005.029541
[R_mouthFront]
116 551.629089 934.514282 -339.151367 0.000029 -2.803930 79.119133 1136.941162
117 551.629089 934.514282 -339.151367 0.000029 -2.803930 79.119133 1136.941162
118 551.629089 934.514282 -339.151367 0.000029 -2.803930 79.119133 1136.941162
[TopMouth]
116 461.269867 -56.106091 -0.008583 -0.000059 -0.000268 92.025169 464.669525
117 461.269867 -56.106091 -0.008583 -0.000059 -0.000268 92.025169 464.669525
118 461.269867 -56.106091 -0.008583 -0.000059 -0.000268 92.025169 464.669525
[weapon_bone]
116 -987.239868 1448.372803 0.001431 0.000000 89.965736 -31.038221 1752.833740
117 -987.239868 1448.372803 0.001431 0.000000 89.965736 -31.038221 1752.833740
118 -987.239868 1448.372803 0.001431 0.000000 89.965736 -31.038221 1752.833740
